<svg width="1280" height="1780" viewBox="0 0 1280 1780" fill="none" xmlns="http://www.w3.org/2000/svg" role="img" aria-labelledby="title desc">
  <title id="title">Mr.H.Zhou cyberpunk GitHub profile dashboard</title>
  <desc id="desc">A continuous dark cyberpunk dashboard for Mr.H.Zhou's GitHub profile, covering identity, projects, stack, workflow, and contact signals.</desc>
  <defs>
    <linearGradient id="page" x1="0" y1="0" x2="1280" y2="1780" gradientUnits="userSpaceOnUse">
      <stop stop-color="#02030a"/>
      <stop offset="0.44" stop-color="#07111f"/>
      <stop offset="1" stop-color="#12051c"/>
    </linearGradient>
    <linearGradient id="edge" x1="56" y1="52" x2="1224" y2="1728" gradientUnits="userSpaceOnUse">
      <stop stop-color="#00f5ff"/>
      <stop offset="0.52" stop-color="#ff4fd8"/>
      <stop offset="1" stop-color="#b8ff5c"/>
    </linearGradient>
    <linearGradient id="cyanFade" x1="0" y1="0" x2="1" y2="1">
      <stop stop-color="#00f5ff" stop-opacity="0.22"/>
      <stop offset="1" stop-color="#00f5ff" stop-opacity="0.02"/>
    </linearGradient>
    <linearGradient id="pinkFade" x1="0" y1="0" x2="1" y2="1">
      <stop stop-color="#ff4fd8" stop-opacity="0.24"/>
      <stop offset="1" stop-color="#ff4fd8" stop-opacity="0.02"/>
    </linearGradient>
    <linearGradient id="greenFade" x1="0" y1="0" x2="1" y2="1">
      <stop stop-color="#b8ff5c" stop-opacity="0.2"/>
      <stop offset="1" stop-color="#b8ff5c" stop-opacity="0.02"/>
    </linearGradient>
    <filter id="cyanGlow" x="-80" y="-80" width="1440" height="1940" filterUnits="userSpaceOnUse" color-interpolation-filters="sRGB">
      <feGaussianBlur stdDeviation="10" result="blur"/>
      <feColorMatrix in="blur" type="matrix" values="0 0 0 0 0 0 0 0 0 0.91 0 0 0 0 1 0 0 0 0.34 0"/>
      <feBlend mode="screen" in2="SourceGraphic"/>
    </filter>
    <filter id="pinkGlow" x="-80" y="-80" width="1440" height="1940" filterUnits="userSpaceOnUse" color-interpolation-filters="sRGB">
      <feGaussianBlur stdDeviation="9" result="blur"/>
      <feColorMatrix in="blur" type="matrix" values="0 0 0 0 1 0 0 0 0 0.22 0 0 0 0 0.85 0 0 0 0.3 0"/>
      <feBlend mode="screen" in2="SourceGraphic"/>
    </filter>
    <pattern id="grid" width="40" height="40" patternUnits="userSpaceOnUse">
      <path d="M40 0H0V40" stroke="#1f6feb" stroke-width="1" opacity="0.18"/>
    </pattern>
    <pattern id="scan" width="8" height="8" patternUnits="userSpaceOnUse">
      <path d="M0 7H8" stroke="#f0f6fc" stroke-width="1" opacity="0.055"/>
    </pattern>
    <style>
      .mono { font-family: JetBrains Mono, SFMono-Regular, Consolas, Menlo, monospace; }
      .sans { font-family: Inter, ui-sans-serif, system-ui, -apple-system, BlinkMacSystemFont, Segoe UI, sans-serif; }
      .label { font-size: 18px; font-weight: 900; letter-spacing: 0; }
      .body { font-size: 21px; letter-spacing: 0; }
      .small { font-size: 16px; letter-spacing: 0; }
    </style>
  </defs>

  <rect width="1280" height="1780" fill="url(#page)"/>
  <rect width="1280" height="1780" fill="url(#grid)"/>
  <rect width="1280" height="1780" fill="url(#scan)"/>
  <rect x="24" y="24" width="1232" height="1732" rx="24" stroke="url(#edge)" stroke-width="2.5"/>

  <path d="M64 112H390L436 158H824L870 112H1216" stroke="#00f5ff" stroke-width="3" stroke-linecap="round" filter="url(#cyanGlow)"/>
  <path d="M64 1676H430L476 1632H804L850 1676H1216" stroke="#ff4fd8" stroke-width="3" stroke-linecap="round" filter="url(#pinkGlow)"/>
  <path d="M1030 88V312M1070 88V242M1110 88V278M1150 88V210" stroke="#00f5ff" stroke-width="2" opacity="0.38"/>

  <g transform="translate(64 66)">
    <circle cx="8" cy="8" r="7" fill="#ff4fd8"/>
    <circle cx="34" cy="8" r="7" fill="#00f5ff"/>
    <circle cx="60" cy="8" r="7" fill="#b8ff5c"/>
    <text x="92" y="15" class="mono" fill="#9fb7d8" font-size="18" font-weight="800">CYBERDECK PROFILE // ONLINE</text>
  </g>

  <g transform="translate(64 174)">
    <text class="mono" fill="#00f5ff" font-size="22" font-weight="900">MR.H.ZHOU / ELVIN-CHOW</text>
    <text y="72" class="sans" fill="#f0f6fc" font-size="64" font-weight="950">Full-Stack Data Systems</text>
    <text y="122" class="sans" fill="#ff8be7" font-size="26" font-weight="850">Frontend + Backend // Data Analysis // Financial Analysis</text>
    <text y="166" class="sans" fill="#c9d1d9" font-size="22">Travel lens -> product context -> data contract -> risk model -> usable interface</text>
  </g>

  <g transform="translate(64 394)">
    <rect width="560" height="228" rx="18" fill="#07111f" stroke="#00f5ff" stroke-width="1.5"/>
    <rect width="560" height="228" rx="18" fill="url(#cyanFade)"/>
    <text x="28" y="46" class="mono label" fill="#00f5ff">IDENTITY CORE</text>
    <text x="28" y="92" class="sans body" fill="#f0f6fc">I build practical product systems where data,</text>
    <text x="28" y="124" class="sans body" fill="#f0f6fc">finance, and interface design meet.</text>
    <text x="28" y="170" class="sans small" fill="#9fb7d8">My taste comes from travel photography: structure, light,</text>
    <text x="28" y="198" class="sans small" fill="#9fb7d8">timing, contrast, and the small details that make tools feel clear.</text>
  </g>

  <g transform="translate(656 394)">
    <rect width="560" height="228" rx="18" fill="#100819" stroke="#ff4fd8" stroke-width="1.5"/>
    <rect width="560" height="228" rx="18" fill="url(#pinkFade)"/>
    <text x="28" y="46" class="mono label" fill="#ff4fd8">SIGNAL MATRIX</text>
    <text x="28" y="90" class="mono small" fill="#00f5ff" font-weight="800">FRONTEND_BACKEND</text>
    <text x="238" y="90" class="sans small" fill="#dbeafe">interfaces, API contracts, deployment</text>
    <text x="28" y="130" class="mono small" fill="#b8ff5c" font-weight="800">DATA_ANALYSIS</text>
    <text x="238" y="130" class="sans small" fill="#efffd8">clean boundaries, provenance, reports</text>
    <text x="28" y="170" class="mono small" fill="#f5d90a" font-weight="800">FINANCE_SYSTEMS</text>
    <text x="238" y="170" class="sans small" fill="#fff8cc">risk, factors, allocation research</text>
  </g>

  <g transform="translate(64 690)">
    <text class="mono label" fill="#b8ff5c">PIPELINE</text>
    <path d="M22 72H1130" stroke="#00f5ff" stroke-width="4" stroke-linecap="round" filter="url(#cyanGlow)"/>
    <g transform="translate(0 38)">
      <rect width="192" height="68" rx="14" fill="#08111f" stroke="#b8ff5c"/>
      <text x="28" y="43" class="mono small" fill="#f0f6fc" font-weight="800">QUESTION</text>
    </g>
    <g transform="translate(238 38)">
      <rect width="220" height="68" rx="14" fill="#08111f" stroke="#00f5ff"/>
      <text x="28" y="43" class="mono small" fill="#f0f6fc" font-weight="800">DATA CONTRACT</text>
    </g>
    <g transform="translate(504 38)">
      <rect width="226" height="68" rx="14" fill="#12091b" stroke="#ff4fd8"/>
      <text x="28" y="43" class="mono small" fill="#f0f6fc" font-weight="800">CALC ENGINE</text>
    </g>
    <g transform="translate(776 38)">
      <rect width="196" height="68" rx="14" fill="#08111f" stroke="#00f5ff"/>
      <text x="28" y="43" class="mono small" fill="#f0f6fc" font-weight="800">INTERFACE</text>
    </g>
    <g transform="translate(1018 38)">
      <rect width="134" height="68" rx="14" fill="#101706" stroke="#b8ff5c"/>
      <text x="28" y="43" class="mono small" fill="#f0f6fc" font-weight="800">REPORT</text>
    </g>
  </g>

  <g transform="translate(64 854)">
    <text class="mono label" fill="#00f5ff">PROJECTS // ACTIVE CONSOLES</text>

    <g transform="translate(0 44)">
      <rect width="1152" height="148" rx="18" fill="#07111f" stroke="#00f5ff" stroke-width="1.4"/>
      <rect width="1152" height="148" rx="18" fill="url(#cyanFade)"/>
      <text x="28" y="42" class="mono small" fill="#00f5ff" font-weight="900">01 / DEEPFIRM QUANT</text>
      <text x="28" y="82" class="sans body" fill="#f0f6fc">ML risk-control and Bayesian decisions for multi-market portfolios.</text>
      <text x="28" y="118" class="sans small" fill="#9fb7d8">Market ingestion, calendars, tail risk, factors, validation, allocation.</text>
      <path d="M908 42H1094M908 76H1058M908 110H1120" stroke="#00f5ff" stroke-width="4" stroke-linecap="round" opacity="0.52"/>
    </g>

    <g transform="translate(0 218)">
      <rect width="1152" height="148" rx="18" fill="#100819" stroke="#ff4fd8" stroke-width="1.4"/>
      <rect width="1152" height="148" rx="18" fill="url(#pinkFade)"/>
      <text x="28" y="42" class="mono small" fill="#ff4fd8" font-weight="900">02 / FUNDX</text>
      <text x="28" y="82" class="sans body" fill="#f0f6fc">US-market portfolio workspace for discovery, planning, watchlists, and reports.</text>
      <text x="28" y="118" class="sans small" fill="#9fb7d8">React/Vite, FastAPI, custom fund modeling, asset search, portfolio records.</text>
      <path d="M908 42H1066M908 76H1120M908 110H1038" stroke="#ff4fd8" stroke-width="4" stroke-linecap="round" opacity="0.52"/>
    </g>

    <g transform="translate(0 392)">
      <rect width="1152" height="148" rx="18" fill="#101706" stroke="#b8ff5c" stroke-width="1.4"/>
      <rect width="1152" height="148" rx="18" fill="url(#greenFade)"/>
      <text x="28" y="42" class="mono small" fill="#b8ff5c" font-weight="900">03 / PAPER EXPERIMENTS</text>
      <text x="28" y="82" class="sans body" fill="#f0f6fc">Reproducibility lab for manuscript artifacts, configs, tables, figures, and guardrails.</text>
      <text x="28" y="118" class="sans small" fill="#9fb7d8">Frozen warning artifacts, result manifests, rerunnable checks, experiment material.</text>
      <path d="M908 42H1094M908 76H1032M908 110H1120" stroke="#b8ff5c" stroke-width="4" stroke-linecap="round" opacity="0.52"/>
    </g>
  </g>

  <g transform="translate(64 1568)">
    <text class="mono label" fill="#f5d90a">WORKING MODE</text>
    <text y="48" class="sans body" fill="#f0f6fc">Practical research tools over one-off notebooks. Visible assumptions over black boxes.</text>
    <text y="82" class="sans body" fill="#c9d1d9">Calm interfaces for complex math. Reproducible outputs. Product details with composition and focus.</text>
  </g>

  <g transform="translate(64 1432)">
    <rect width="262" height="76" rx="16" fill="#08111f" stroke="#00f5ff"/>
    <text x="24" y="31" class="mono small" fill="#00f5ff" font-weight="900">STACK</text>
    <text x="24" y="57" class="sans small" fill="#dbeafe">Python / TypeScript / React</text>
  </g>
  <g transform="translate(354 1432)">
    <rect width="262" height="76" rx="16" fill="#12091b" stroke="#ff4fd8"/>
    <text x="24" y="31" class="mono small" fill="#ff4fd8" font-weight="900">BACKEND</text>
    <text x="24" y="57" class="sans small" fill="#fde7ff">FastAPI / services / data</text>
  </g>
  <g transform="translate(644 1432)">
    <rect width="262" height="76" rx="16" fill="#101706" stroke="#b8ff5c"/>
    <text x="24" y="31" class="mono small" fill="#b8ff5c" font-weight="900">ANALYTICS</text>
    <text x="24" y="57" class="sans small" fill="#efffd8">Risk / factors / reports</text>
  </g>
  <g transform="translate(934 1432)">
    <rect width="282" height="76" rx="16" fill="#171009" stroke="#f5d90a"/>
    <text x="24" y="31" class="mono small" fill="#f5d90a" font-weight="900">CONTACT</text>
    <text x="24" y="57" class="sans small" fill="#fff8cc">github.com/Elvin-Chow</text>
  </g>
</svg>
